<svg width="155" height="25" viewBox="0 0 155 25" fill="none" xmlns="http://www.w3.org/2000/svg">
<path d="M23.8566 6.77452C23.5839 5.74804 22.7807 4.93962 21.7609 4.66527C19.9124 4.16675 12.5 4.16675 12.5 4.16675C12.5 4.16675 5.08767 4.16675 3.2391 4.66527C2.21927 4.93966 1.41606 5.74804 1.14344 6.77452C0.648132 8.63506 0.648132 12.5169 0.648132 12.5169C0.648132 12.5169 0.648132 16.3988 1.14344 18.2593C1.41606 19.2858 2.21927 20.0605 3.2391 20.3349C5.08767 20.8334 12.5 20.8334 12.5 20.8334C12.5 20.8334 19.9123 20.8334 21.7609 20.3349C22.7807 20.0605 23.5839 19.2858 23.8566 18.2593C24.3519 16.3988 24.3519 12.5169 24.3519 12.5169C24.3519 12.5169 24.3519 8.63506 23.8566 6.77452ZM10.0757 16.0414V8.99249L16.271 12.517L10.0757 16.0414Z" fill="white" fill-opacity="0.5"/>
<path d="M81.075 11.875C81.075 12.6375 80.5125 13.2625 79.8 13.2625C79.1 13.2625 78.525 12.6375 78.525 11.875C78.525 11.1125 79.0875 10.4875 79.8 10.4875C80.5125 10.4875 81.075 11.1125 81.075 11.875ZM75.2375 10.4875C74.525 10.4875 73.9625 11.1125 73.9625 11.875C73.9625 12.6375 74.5375 13.2625 75.2375 13.2625C75.95 13.2625 76.5125 12.6375 76.5125 11.875C76.525 11.1125 75.95 10.4875 75.2375 10.4875ZM88.4375 2.575V25C85.2884 22.2171 86.2955 23.1383 82.6375 19.7375L83.3 22.05H69.125C67.7125 22.05 66.5625 20.9 66.5625 19.475V2.575C66.5625 1.15 67.7125 0 69.125 0H85.875C87.2875 0 88.4375 1.15 88.4375 2.575ZM84.875 14.425C84.875 10.4 83.075 7.1375 83.075 7.1375C81.275 5.7875 79.5625 5.825 79.5625 5.825L79.3875 6.025C81.5125 6.675 82.5 7.6125 82.5 7.6125C79.5307 5.98511 76.0428 5.98481 73.1625 7.25C72.7 7.4625 72.425 7.6125 72.425 7.6125C72.425 7.6125 73.4625 6.625 75.7125 5.975L75.5875 5.825C75.5875 5.825 73.875 5.7875 72.075 7.1375C72.075 7.1375 70.275 10.4 70.275 14.425C70.275 14.425 71.325 16.2375 74.0875 16.325C74.0875 16.325 74.55 15.7625 74.925 15.2875C73.3375 14.8125 72.7375 13.8125 72.7375 13.8125C72.9214 13.9412 73.2246 14.1081 73.25 14.125C75.3599 15.3065 78.3568 15.6937 81.05 14.5625C81.4875 14.4 81.975 14.1625 82.4875 13.825C82.4875 13.825 81.8625 14.85 80.225 15.3125C80.6 15.7875 81.05 16.325 81.05 16.325C83.8125 16.2375 84.875 14.425 84.875 14.425Z" fill="white" fill-opacity="0.5"/>
<path d="M142.505 6.88477C139.399 6.88477 136.895 9.38965 136.895 12.4951C136.895 15.6006 139.399 18.1055 142.505 18.1055C145.61 18.1055 148.115 15.6006 148.115 12.4951C148.115 9.38965 145.61 6.88477 142.505 6.88477ZM142.505 16.1426C140.498 16.1426 138.857 14.5068 138.857 12.4951C138.857 10.4834 140.493 8.84766 142.505 8.84766C144.517 8.84766 146.152 10.4834 146.152 12.4951C146.152 14.5068 144.512 16.1426 142.505 16.1426ZM149.653 6.65527C149.653 7.38281 149.067 7.96387 148.345 7.96387C147.617 7.96387 147.036 7.37793 147.036 6.65527C147.036 5.93262 147.622 5.34668 148.345 5.34668C149.067 5.34668 149.653 5.93262 149.653 6.65527ZM153.369 7.9834C153.286 6.23047 152.886 4.67773 151.602 3.39844C150.322 2.11914 148.77 1.71875 147.017 1.63086C145.21 1.52832 139.795 1.52832 137.988 1.63086C136.24 1.71387 134.688 2.11426 133.403 3.39355C132.119 4.67285 131.724 6.22559 131.636 7.97852C131.533 9.78516 131.533 15.2002 131.636 17.0068C131.719 18.7598 132.119 20.3125 133.403 21.5918C134.688 22.8711 136.235 23.2715 137.988 23.3594C139.795 23.4619 145.21 23.4619 147.017 23.3594C148.77 23.2764 150.322 22.876 151.602 21.5918C152.881 20.3125 153.281 18.7598 153.369 17.0068C153.472 15.2002 153.472 9.79004 153.369 7.9834ZM151.035 18.9453C150.654 19.9023 149.917 20.6396 148.955 21.0254C147.515 21.5967 144.097 21.4648 142.505 21.4648C140.913 21.4648 137.49 21.5918 136.055 21.0254C135.098 20.6445 134.36 19.9072 133.975 18.9453C133.403 17.5049 133.535 14.0869 133.535 12.4951C133.535 10.9033 133.408 7.48047 133.975 6.04492C134.355 5.08789 135.093 4.35059 136.055 3.96484C137.495 3.39355 140.913 3.52539 142.505 3.52539C144.097 3.52539 147.52 3.39844 148.955 3.96484C149.912 4.3457 150.649 5.08301 151.035 6.04492C151.606 7.48535 151.475 10.9033 151.475 12.4951C151.475 14.0869 151.606 17.5098 151.035 18.9453Z" fill="white" fill-opacity="0.5"/>
</svg>
